<svg xmlns="http://www.w3.org/2000/svg" xmlns:xlink="http://www.w3.org/1999/xlink" width="1920" zoomAndPan="magnify" viewBox="0 0 1440 809.999993" height="1080" preserveAspectRatio="xMidYMid meet" version="1.0"><defs><clipPath id="7f10ce0b98"><path d="M 351.367188 337 L 1120 337 L 1120 412.761719 L 351.367188 412.761719 Z M 351.367188 337 " clip-rule="nonzero"/></clipPath><clipPath id="110ed1b8db"><path d="M 335 621.269531 L 1097.90625 621.269531 L 1097.90625 640.476562 L 335 640.476562 Z M 335 621.269531 " clip-rule="nonzero"/></clipPath><clipPath id="476066ce37"><path d="M 344.410156 621.269531 L 1107 621.269531 L 1107 640.476562 L 344.410156 640.476562 Z M 344.410156 621.269531 " clip-rule="nonzero"/></clipPath><clipPath id="d05cb05f73"><path d="M 339 621.269531 L 1102.542969 621.269531 L 1102.542969 640.476562 L 339 640.476562 Z M 339 621.269531 " clip-rule="nonzero"/></clipPath><clipPath id="337b47d2ac"><path d="M 349.046875 561.035156 L 1121.046875 561.035156 L 1121.046875 592 L 349.046875 592 Z M 349.046875 561.035156 " clip-rule="nonzero"/></clipPath></defs><path fill="#f74b46" d="M 425.972656 249.609375 L 409.78125 249.609375 L 409.78125 232.695312 L 425.972656 232.695312 L 425.972656 249.609375 " fill-opacity="1" fill-rule="nonzero"/><path fill="#f74b46" d="M 497.011719 331.53125 L 480.8125 331.53125 L 480.8125 314.605469 L 497.011719 314.605469 L 497.011719 331.53125 " fill-opacity="1" fill-rule="nonzero"/><path fill="#f74b46" d="M 351.105469 395.03125 L 318.910156 395.03125 L 318.910156 378.117188 L 351.105469 378.117188 L 351.105469 395.03125 " fill-opacity="1" fill-rule="nonzero"/><path fill="#f74b46" d="M 628.175781 316.667969 L 595.980469 316.667969 L 595.980469 299.753906 L 628.175781 299.753906 L 628.175781 316.667969 " fill-opacity="1" fill-rule="nonzero"/><path fill="#f74b46" d="M 954.046875 302.851562 L 921.859375 302.851562 L 921.859375 285.925781 L 954.046875 285.925781 L 954.046875 302.851562 " fill-opacity="1" fill-rule="nonzero"/><path fill="#f74b46" d="M 1023.644531 462.164062 L 991.449219 462.164062 L 991.449219 445.242188 L 1023.644531 445.242188 L 1023.644531 462.164062 " fill-opacity="1" fill-rule="nonzero"/><path fill="#f74b46" d="M 810.609375 330.976562 L 778.421875 330.976562 L 778.421875 303.328125 L 810.609375 303.328125 L 810.609375 330.976562 " fill-opacity="1" fill-rule="nonzero"/><path fill="#c8f53c" d="M 853.945312 254.976562 L 821.75 254.976562 L 821.75 227.328125 L 853.945312 227.328125 L 853.945312 254.976562 " fill-opacity="1" fill-rule="nonzero"/><path fill="#c8f53c" d="M 579.960938 308.207031 L 547.765625 308.207031 L 547.765625 280.570312 L 579.960938 280.570312 L 579.960938 308.207031 " fill-opacity="1" fill-rule="nonzero"/><path fill="#c8f53c" d="M 455.019531 347.449219 L 422.824219 347.449219 L 422.824219 319.808594 L 455.019531 319.808594 L 455.019531 347.449219 " fill-opacity="1" fill-rule="nonzero"/><path fill="#c8f53c" d="M 1093.929688 246.515625 L 1061.734375 246.515625 L 1061.734375 218.867188 L 1093.929688 218.867188 L 1093.929688 246.515625 " fill-opacity="1" fill-rule="nonzero"/><path fill="#c8f53c" d="M 1100.53125 446.980469 L 1068.335938 446.980469 L 1068.335938 419.339844 L 1100.53125 419.339844 L 1100.53125 446.980469 " fill-opacity="1" fill-rule="nonzero"/><path fill="#c8f53c" d="M 1013.183594 333.628906 L 980.996094 333.628906 L 980.996094 305.980469 L 1013.183594 305.980469 L 1013.183594 333.628906 " fill-opacity="1" fill-rule="nonzero"/><path fill="#f74b46" d="M 650.808594 412.183594 L 589.378906 412.183594 C 629.609375 505.0625 771.964844 504.890625 812.265625 412.183594 L 750.882812 412.183594 C 724.257812 439.964844 677.433594 439.964844 650.808594 412.183594 Z M 320.855469 423.695312 L 469.652344 423.695312 L 469.652344 476.570312 L 521.367188 476.570312 L 521.367188 423.695312 L 553.988281 423.695312 L 553.988281 412.183594 L 319.824219 412.183594 Z M 850.277344 412.183594 L 1084.441406 412.183594 L 1084.441406 423.695312 L 1051.816406 423.695312 L 1051.816406 476.570312 L 1000.097656 476.570312 L 1000.097656 423.695312 L 851.308594 423.695312 L 850.277344 412.183594 " fill-opacity="1" fill-rule="nonzero"/><path fill="#c8f53c" d="M 674.464844 412.183594 L 613.027344 412.183594 C 653.261719 505.0625 795.621094 504.890625 835.921875 412.183594 L 774.527344 412.183594 C 747.902344 439.964844 701.089844 439.964844 674.464844 412.183594 Z M 344.511719 423.695312 L 493.300781 423.695312 L 493.300781 476.570312 L 545.019531 476.570312 L 545.019531 423.695312 L 577.640625 423.695312 L 577.640625 412.183594 L 343.480469 412.183594 Z M 873.933594 412.183594 L 1108.085938 412.183594 L 1108.085938 423.695312 L 1075.472656 423.695312 L 1075.472656 476.570312 L 1023.753906 476.570312 L 1023.753906 423.695312 L 874.964844 423.695312 L 873.933594 412.183594 " fill-opacity="1" fill-rule="nonzero"/><path fill="#181a39" d="M 665 412.183594 L 603.570312 412.183594 C 643.800781 505.0625 786.15625 504.890625 826.457031 412.183594 L 765.074219 412.183594 C 738.449219 439.964844 691.625 439.964844 665 412.183594 Z M 335.046875 423.695312 L 483.84375 423.695312 L 483.84375 476.570312 L 535.558594 476.570312 L 535.558594 423.695312 L 568.179688 423.695312 L 568.179688 412.183594 L 334.023438 412.183594 Z M 864.46875 412.183594 L 1098.632812 412.183594 L 1098.632812 423.695312 L 1066.007812 423.695312 L 1066.007812 476.570312 L 1014.289062 476.570312 L 1014.289062 423.695312 L 865.5 423.695312 L 864.46875 412.183594 " fill-opacity="1" fill-rule="nonzero"/><path fill="#f74b46" d="M 642.65625 357.304688 L 642.65625 337.230469 L 590.539062 337.230469 L 590.539062 357.304688 C 590.539062 378.246094 594.421875 396.527344 601.207031 412.183594 L 662.636719 412.183594 C 650.574219 399.59375 642.65625 381.304688 642.65625 357.304688 Z M 1011.925781 337.230469 L 1011.925781 372.816406 L 917.636719 372.816406 L 943.683594 337.230469 L 882.582031 337.230469 L 858.363281 370.425781 L 862.105469 412.183594 L 1096.265625 412.183594 L 1096.265625 372.816406 L 1063.644531 372.816406 L 1063.644531 337.230469 Z M 834.808594 337.230469 L 782.6875 337.230469 L 782.6875 357.304688 C 782.6875 381.304688 774.765625 399.59375 762.710938 412.183594 L 824.09375 412.183594 C 830.90625 396.527344 834.808594 378.234375 834.808594 357.304688 Z M 565.8125 372.816406 L 565.8125 412.183594 L 331.652344 412.183594 L 327.910156 370.425781 L 352.136719 337.230469 L 413.230469 337.230469 L 387.183594 372.816406 L 481.472656 372.816406 L 481.472656 337.230469 L 533.191406 337.230469 L 533.191406 372.816406 L 565.8125 372.816406 " fill-opacity="1" fill-rule="nonzero"/><g clip-path="url(#7f10ce0b98)"><path fill="#c8f53c" d="M 666.304688 357.304688 L 666.304688 337.230469 L 614.183594 337.230469 L 614.183594 357.304688 C 614.183594 378.246094 618.070312 396.527344 624.851562 412.183594 L 686.292969 412.183594 C 674.230469 399.59375 666.304688 381.304688 666.304688 357.304688 Z M 1035.570312 337.230469 L 1035.570312 372.816406 L 941.292969 372.816406 L 967.339844 337.230469 L 906.234375 337.230469 L 882.011719 370.425781 L 885.757812 412.183594 L 1119.914062 412.183594 L 1119.914062 372.816406 L 1087.292969 372.816406 L 1087.292969 337.230469 Z M 858.453125 337.230469 L 806.34375 337.230469 L 806.34375 357.304688 C 806.34375 381.304688 798.417969 399.59375 786.355469 412.183594 L 847.75 412.183594 C 854.550781 396.527344 858.453125 378.234375 858.453125 357.304688 Z M 589.46875 372.816406 L 589.46875 412.183594 L 355.308594 412.183594 L 351.566406 370.425781 L 375.785156 337.230469 L 436.886719 337.230469 L 410.839844 372.816406 L 505.128906 372.816406 L 505.128906 337.230469 L 556.839844 337.230469 L 556.839844 372.816406 L 589.46875 372.816406 " fill-opacity="1" fill-rule="nonzero"/></g><path fill="#181a39" d="M 656.839844 357.304688 L 656.839844 337.230469 L 604.730469 337.230469 L 604.730469 357.304688 C 604.730469 378.246094 608.613281 396.527344 615.398438 412.183594 L 676.828125 412.183594 C 664.765625 399.59375 656.839844 381.304688 656.839844 357.304688 Z M 1026.117188 337.230469 L 1026.117188 372.816406 L 931.828125 372.816406 L 957.875 337.230469 L 896.773438 337.230469 L 872.554688 370.425781 L 876.296875 412.183594 L 1110.449219 412.183594 L 1110.449219 372.816406 L 1077.835938 372.816406 L 1077.835938 337.230469 Z M 849 337.230469 L 796.878906 337.230469 L 796.878906 357.304688 C 796.878906 381.304688 788.957031 399.59375 776.890625 412.183594 L 838.285156 412.183594 C 845.085938 396.527344 849 378.234375 849 357.304688 Z M 580.003906 372.816406 L 580.003906 412.183594 L 345.84375 412.183594 L 342.101562 370.425781 L 366.328125 337.230469 L 427.421875 337.230469 L 401.375 372.816406 L 495.664062 372.816406 L 495.664062 337.230469 L 547.382812 337.230469 L 547.382812 372.816406 L 580.003906 372.816406 " fill-opacity="1" fill-rule="nonzero"/><path fill="#f74b46" d="M 479.933594 262.28125 L 418.65625 262.28125 L 363.957031 337.230469 L 425.058594 337.230469 Z M 493.300781 337.230469 L 545.019531 337.230469 L 545.019531 262.28125 L 493.300781 262.28125 Z M 602.367188 337.230469 L 654.476562 337.230469 L 654.476562 317.148438 C 654.476562 293.003906 662.5625 274.742188 674.835938 262.28125 L 613.027344 262.28125 C 606.25 277.925781 602.367188 296.214844 602.367188 317.148438 Z M 794.515625 317.148438 L 794.515625 337.230469 L 846.636719 337.230469 L 846.636719 317.148438 C 846.636719 296.214844 842.722656 277.9375 835.921875 262.28125 L 773.824219 262.28125 C 786.285156 274.777344 794.515625 293.078125 794.515625 317.148438 Z M 1023.753906 337.230469 L 1075.472656 337.230469 L 1075.472656 262.28125 L 1023.753906 262.28125 Z M 894.410156 337.230469 L 949.101562 262.28125 L 1010.375 262.28125 L 955.511719 337.230469 L 894.410156 337.230469 " fill-opacity="1" fill-rule="nonzero"/><path fill="#c8f53c" d="M 505.941406 262.28125 L 444.667969 262.28125 L 389.976562 337.230469 L 451.078125 337.230469 Z M 519.320312 337.230469 L 571.03125 337.230469 L 571.03125 262.28125 L 519.320312 262.28125 Z M 628.375 337.230469 L 680.496094 337.230469 L 680.496094 317.148438 C 680.496094 293.003906 688.574219 274.742188 700.84375 262.28125 L 639.042969 262.28125 C 632.261719 277.925781 628.375 296.214844 628.375 317.148438 Z M 820.535156 317.148438 L 820.535156 337.230469 L 872.644531 337.230469 L 872.644531 317.148438 C 872.644531 296.214844 868.742188 277.9375 861.933594 262.28125 L 799.839844 262.28125 C 812.292969 274.777344 820.535156 293.078125 820.535156 317.148438 Z M 1049.761719 337.230469 L 1101.484375 337.230469 L 1101.484375 262.28125 L 1049.761719 262.28125 Z M 920.425781 337.230469 L 975.121094 262.28125 L 1036.394531 262.28125 L 981.523438 337.230469 L 920.425781 337.230469 " fill-opacity="1" fill-rule="nonzero"/><path fill="#181a39" d="M 494.113281 262.28125 L 432.839844 262.28125 L 378.148438 337.230469 L 439.25 337.230469 Z M 507.492188 337.230469 L 559.210938 337.230469 L 559.210938 262.28125 L 507.492188 262.28125 Z M 616.558594 337.230469 L 668.667969 337.230469 L 668.667969 317.148438 C 668.667969 293.003906 676.753906 274.742188 689.027344 262.28125 L 627.21875 262.28125 C 620.441406 277.925781 616.558594 296.214844 616.558594 317.148438 Z M 808.707031 317.148438 L 808.707031 337.230469 L 860.828125 337.230469 L 860.828125 317.148438 C 860.828125 296.214844 856.914062 277.9375 850.113281 262.28125 L 788.015625 262.28125 C 800.476562 274.777344 808.707031 293.078125 808.707031 317.148438 Z M 1037.933594 337.230469 L 1089.65625 337.230469 L 1089.65625 262.28125 L 1037.933594 262.28125 Z M 908.601562 337.230469 L 963.292969 262.28125 L 1024.566406 262.28125 L 969.703125 337.230469 L 908.601562 337.230469 " fill-opacity="1" fill-rule="nonzero"/><path fill="#f74b46" d="M 479.109375 244.007812 L 479.109375 262.28125 L 530.828125 262.28125 L 530.828125 198.6875 L 450.859375 198.6875 L 404.464844 262.28125 L 465.742188 262.28125 Z M 759.632812 262.28125 L 821.730469 262.28125 C 781.429688 169.5625 639.0625 169.402344 598.835938 262.28125 L 660.644531 262.28125 C 687.089844 235.402344 733.023438 235.5625 759.632812 262.28125 Z M 996.183594 262.28125 L 934.910156 262.28125 L 981.3125 198.6875 L 1061.28125 198.6875 L 1061.28125 262.28125 L 1009.5625 262.28125 L 1009.5625 244.007812 L 996.183594 262.28125 " fill-opacity="1" fill-rule="nonzero"/><path fill="#c8f53c" d="M 505.128906 244.007812 L 505.128906 262.28125 L 556.839844 262.28125 L 556.839844 198.6875 L 476.878906 198.6875 L 430.476562 262.28125 L 491.75 262.28125 Z M 785.648438 262.28125 L 847.75 262.28125 C 807.441406 169.5625 665.082031 169.402344 624.851562 262.28125 L 686.652344 262.28125 C 713.109375 235.402344 759.03125 235.5625 785.648438 262.28125 Z M 1022.203125 262.28125 L 960.929688 262.28125 L 1007.332031 198.6875 L 1087.292969 198.6875 L 1087.292969 262.28125 L 1035.570312 262.28125 L 1035.570312 244.007812 L 1022.203125 262.28125 " fill-opacity="1" fill-rule="nonzero"/><path fill="#181a39" d="M 495.664062 244.007812 L 495.664062 262.28125 L 547.382812 262.28125 L 547.382812 198.6875 L 467.417969 198.6875 L 421.019531 262.28125 L 482.285156 262.28125 Z M 776.1875 262.28125 L 838.285156 262.28125 C 797.984375 169.5625 655.617188 169.402344 615.398438 262.28125 L 677.199219 262.28125 C 703.644531 235.402344 749.578125 235.5625 776.1875 262.28125 Z M 1012.738281 262.28125 L 951.464844 262.28125 L 997.871094 198.6875 L 1077.835938 198.6875 L 1077.835938 262.28125 L 1026.117188 262.28125 L 1026.117188 244.007812 L 1012.738281 262.28125 " fill-opacity="1" fill-rule="nonzero"/><path fill="#f74b46" d="M 341.34375 579.097656 L 333.398438 579.097656 L 333.398438 568.046875 L 341.34375 568.046875 L 341.34375 579.097656 " fill-opacity="1" fill-rule="nonzero"/><path fill="#f74b46" d="M 504.71875 604.882812 L 496.777344 604.882812 L 496.777344 593.832031 L 504.71875 593.832031 L 504.71875 604.882812 " fill-opacity="1" fill-rule="nonzero"/><path fill="#f74b46" d="M 335.011719 604.882812 L 327.058594 604.882812 L 327.058594 599.351562 L 335.011719 599.351562 L 335.011719 604.882812 " fill-opacity="1" fill-rule="nonzero"/><path fill="#f74b46" d="M 439.386719 578.140625 L 431.433594 578.140625 L 431.433594 572.609375 L 439.386719 572.609375 L 439.386719 578.140625 " fill-opacity="1" fill-rule="nonzero"/><path fill="#c8f53c" d="M 426.398438 555.847656 L 418.457031 555.847656 L 418.457031 550.320312 L 426.398438 550.320312 L 426.398438 555.847656 " fill-opacity="1" fill-rule="nonzero"/><path fill="#c8f53c" d="M 422.433594 615.054688 L 414.480469 615.054688 L 414.480469 604.882812 L 422.433594 604.882812 L 422.433594 615.054688 " fill-opacity="1" fill-rule="nonzero"/><path fill="#c8f53c" d="M 464.664062 585.984375 L 456.710938 585.984375 L 456.710938 575.8125 L 464.664062 575.8125 L 464.664062 585.984375 " fill-opacity="1" fill-rule="nonzero"/><path fill="#c8f53c" d="M 593.066406 579.640625 L 585.113281 579.640625 L 585.113281 569.46875 L 593.066406 569.46875 L 593.066406 579.640625 " fill-opacity="1" fill-rule="nonzero"/><path fill="#c8f53c" d="M 679.644531 609.613281 L 671.691406 609.613281 L 671.691406 599.441406 L 679.644531 599.441406 L 679.644531 609.613281 " fill-opacity="1" fill-rule="nonzero"/><path fill="#c8f53c" d="M 762.964844 571.714844 L 755.011719 571.714844 L 755.011719 561.542969 L 762.964844 561.542969 L 762.964844 571.714844 " fill-opacity="1" fill-rule="nonzero"/><path fill="#c8f53c" d="M 863.789062 574.933594 L 855.835938 574.933594 L 855.835938 568.355469 L 863.789062 568.355469 L 863.789062 574.933594 " fill-opacity="1" fill-rule="nonzero"/><path fill="#c8f53c" d="M 929.648438 578.140625 L 921.695312 578.140625 L 921.695312 568.355469 L 929.648438 568.355469 L 929.648438 578.140625 " fill-opacity="1" fill-rule="nonzero"/><path fill="#c8f53c" d="M 982.746094 576.539062 L 974.800781 576.539062 L 974.800781 566.761719 L 982.746094 566.761719 L 982.746094 576.539062 " fill-opacity="1" fill-rule="nonzero"/><path fill="#c8f53c" d="M 1058.992188 576.828125 L 1051.039062 576.828125 L 1051.039062 567.0625 L 1058.992188 567.0625 L 1058.992188 576.828125 " fill-opacity="1" fill-rule="nonzero"/><path fill="#c8f53c" d="M 1117.992188 608.113281 L 1107.605469 608.113281 L 1107.605469 598.339844 L 1117.992188 598.339844 L 1117.992188 608.113281 " fill-opacity="1" fill-rule="nonzero"/><path fill="#f74b46" d="M 561.078125 583.660156 L 553.125 583.660156 L 553.125 578.140625 L 561.078125 578.140625 L 561.078125 583.660156 " fill-opacity="1" fill-rule="nonzero"/><path fill="#f74b46" d="M 647.070312 575.371094 L 639.117188 575.371094 L 639.117188 569.847656 L 647.070312 569.847656 L 647.070312 575.371094 " fill-opacity="1" fill-rule="nonzero"/><path fill="#f74b46" d="M 729.707031 578.140625 L 721.757812 578.140625 L 721.757812 570.980469 L 729.707031 570.980469 L 729.707031 578.140625 " fill-opacity="1" fill-rule="nonzero"/><path fill="#f74b46" d="M 796.300781 608.113281 L 788.347656 608.113281 L 788.347656 600.953125 L 796.300781 600.953125 L 796.300781 608.113281 " fill-opacity="1" fill-rule="nonzero"/><path fill="#f74b46" d="M 903.410156 585.289062 L 895.460938 585.289062 L 895.460938 578.140625 L 903.410156 578.140625 L 903.410156 585.289062 " fill-opacity="1" fill-rule="nonzero"/><path fill="#f74b46" d="M 931.601562 615.261719 L 923.660156 615.261719 L 923.660156 608.113281 L 931.601562 608.113281 L 931.601562 615.261719 " fill-opacity="1" fill-rule="nonzero"/><path fill="#f74b46" d="M 1031.59375 575.523438 L 1023.644531 575.523438 L 1023.644531 568.355469 L 1031.59375 568.355469 L 1031.59375 575.523438 " fill-opacity="1" fill-rule="nonzero"/><path fill="#f74b46" d="M 1096.1875 581.714844 L 1088.234375 581.714844 L 1088.234375 574.554688 L 1096.1875 574.554688 L 1096.1875 581.714844 " fill-opacity="1" fill-rule="nonzero"/><path fill="#f74b46" d="M 839.292969 571.941406 L 831.339844 571.941406 L 831.339844 564.78125 L 839.292969 564.78125 L 839.292969 571.941406 " fill-opacity="1" fill-rule="nonzero"/><path fill="#f74b46" d="M 526.480469 553.089844 L 518.53125 553.089844 L 518.53125 547.558594 L 526.480469 547.558594 L 526.480469 553.089844 " fill-opacity="1" fill-rule="nonzero"/><g clip-path="url(#110ed1b8db)"><path fill="#f74b46" d="M 870.425781 624.230469 C 865.679688 624.230469 861.460938 623.269531 857.921875 621.414062 L 834.148438 621.414062 C 841.464844 634.105469 855.105469 640.339844 870.292969 640.339844 C 886.105469 640.339844 898.945312 633.941406 905.730469 621.414062 L 882.335938 621.414062 C 879.039062 623.253906 875.046875 624.230469 870.425781 624.230469 Z M 767.265625 624.230469 C 761.730469 624.230469 757.050781 623.199219 753.148438 621.414062 L 727.515625 621.414062 C 735.269531 632.691406 748.363281 640.476562 767.265625 640.476562 C 786.039062 640.476562 798.945312 632.636719 806.660156 621.414062 L 781.332031 621.414062 C 777.445312 623.199219 772.78125 624.230469 767.265625 624.230469 Z M 474.976562 624.230469 C 469.4375 624.230469 464.761719 623.199219 460.859375 621.414062 L 435.230469 621.414062 C 442.980469 632.691406 456.070312 640.476562 474.976562 640.476562 C 493.742188 640.476562 506.65625 632.636719 514.363281 621.414062 L 489.042969 621.414062 C 485.148438 623.199219 480.492188 624.230469 474.976562 624.230469 Z M 335.011719 638.328125 L 352.734375 638.328125 L 352.734375 621.414062 L 335.011719 621.414062 Z M 996.835938 638.457031 L 996.835938 638.328125 L 1007.847656 638.328125 L 1007.847656 621.414062 L 983.558594 621.414062 Z M 1022.882812 638.328125 C 1034.4375 638.328125 1048.277344 638.328125 1059.832031 638.328125 C 1077.4375 638.328125 1089.773438 631.453125 1097.382812 621.414062 L 1022.882812 621.414062 Z M 929.664062 638.328125 L 947.398438 638.328125 L 947.398438 621.414062 L 929.664062 621.414062 Z M 555.039062 638.328125 L 572.769531 638.328125 L 572.769531 621.414062 L 555.039062 621.414062 Z M 640.464844 638.328125 L 658.199219 638.328125 L 658.199219 621.414062 L 640.464844 621.414062 Z M 388.90625 621.414062 L 413.195312 621.414062 L 413.195312 638.328125 L 402.171875 638.328125 L 402.171875 638.457031 L 388.90625 621.414062 " fill-opacity="1" fill-rule="nonzero"/></g><g clip-path="url(#476066ce37)"><path fill="#c8f53c" d="M 879.890625 624.230469 C 875.136719 624.230469 870.925781 623.269531 867.382812 621.414062 L 843.609375 621.414062 C 850.929688 634.105469 864.566406 640.339844 879.753906 640.339844 C 895.566406 640.339844 908.402344 633.941406 915.191406 621.414062 L 891.800781 621.414062 C 888.496094 623.253906 884.511719 624.230469 879.890625 624.230469 Z M 776.730469 624.230469 C 771.1875 624.230469 766.515625 623.199219 762.609375 621.414062 L 736.980469 621.414062 C 744.722656 632.691406 757.828125 640.476562 776.730469 640.476562 C 795.496094 640.476562 808.410156 632.636719 816.117188 621.414062 L 790.792969 621.414062 C 786.898438 623.199219 782.246094 624.230469 776.730469 624.230469 Z M 484.433594 624.230469 C 478.898438 624.230469 474.21875 623.199219 470.3125 621.414062 L 444.683594 621.414062 C 452.4375 632.691406 465.53125 640.476562 484.433594 640.476562 C 503.207031 640.476562 516.113281 632.636719 523.828125 621.414062 L 498.496094 621.414062 C 494.613281 623.199219 489.949219 624.230469 484.433594 624.230469 Z M 344.464844 638.328125 L 362.199219 638.328125 L 362.199219 621.414062 L 344.464844 621.414062 Z M 1006.292969 638.457031 L 1006.292969 638.328125 L 1017.3125 638.328125 L 1017.3125 621.414062 L 993.023438 621.414062 Z M 1032.347656 638.328125 C 1043.894531 638.328125 1057.730469 638.328125 1069.289062 638.328125 C 1086.894531 638.328125 1099.238281 631.453125 1106.84375 621.414062 L 1032.347656 621.414062 Z M 939.128906 638.328125 L 956.851562 638.328125 L 956.851562 621.414062 L 939.128906 621.414062 Z M 564.492188 638.328125 L 582.222656 638.328125 L 582.222656 621.414062 L 564.492188 621.414062 Z M 649.921875 638.328125 L 667.652344 638.328125 L 667.652344 621.414062 L 649.921875 621.414062 Z M 398.359375 621.414062 L 422.648438 621.414062 L 422.648438 638.328125 L 411.636719 638.328125 L 411.636719 638.457031 L 398.359375 621.414062 " fill-opacity="1" fill-rule="nonzero"/></g><g clip-path="url(#d05cb05f73)"><path fill="#000000" d="M 875.164062 624.230469 C 870.410156 624.230469 866.1875 623.269531 862.648438 621.414062 L 838.882812 621.414062 C 846.191406 634.105469 859.832031 640.339844 875.027344 640.339844 C 890.839844 640.339844 903.671875 633.941406 910.464844 621.414062 L 887.0625 621.414062 C 883.765625 623.253906 879.78125 624.230469 875.164062 624.230469 Z M 771.992188 624.230469 C 766.460938 624.230469 761.785156 623.199219 757.882812 621.414062 L 732.253906 621.414062 C 739.996094 632.691406 753.09375 640.476562 771.992188 640.476562 C 790.765625 640.476562 803.679688 632.636719 811.386719 621.414062 L 786.058594 621.414062 C 782.171875 623.199219 777.515625 624.230469 771.992188 624.230469 Z M 479.707031 624.230469 C 474.164062 624.230469 469.488281 623.199219 465.585938 621.414062 L 439.957031 621.414062 C 447.710938 632.691406 460.804688 640.476562 479.707031 640.476562 C 498.472656 640.476562 511.386719 632.636719 519.09375 621.414062 L 493.769531 621.414062 C 489.875 623.199219 485.222656 624.230469 479.707031 624.230469 Z M 339.738281 638.328125 L 357.472656 638.328125 L 357.472656 621.414062 L 339.738281 621.414062 Z M 1001.5625 638.457031 L 1001.5625 638.328125 L 1012.585938 638.328125 L 1012.585938 621.414062 L 988.289062 621.414062 Z M 1027.621094 638.328125 C 1039.167969 638.328125 1053.003906 638.328125 1064.5625 638.328125 C 1082.167969 638.328125 1094.5 631.453125 1102.109375 621.414062 L 1027.621094 621.414062 Z M 934.394531 638.328125 L 952.125 638.328125 L 952.125 621.414062 L 934.394531 621.414062 Z M 559.765625 638.328125 L 577.496094 638.328125 L 577.496094 621.414062 L 559.765625 621.414062 Z M 645.195312 638.328125 L 662.925781 638.328125 L 662.925781 621.414062 L 645.195312 621.414062 Z M 393.632812 621.414062 L 417.921875 621.414062 L 417.921875 638.328125 L 406.910156 638.328125 L 406.910156 638.457031 L 393.632812 621.414062 " fill-opacity="1" fill-rule="nonzero"/></g><path fill="#f74b46" d="M 741.109375 591.480469 C 741.046875 579.75 746.191406 567.132812 757.964844 561.542969 L 732.851562 561.542969 C 726.792969 570.175781 723.75 580.816406 723.648438 591.480469 Z M 802.75 591.480469 L 820.21875 591.480469 C 820.261719 580.84375 817.238281 570.183594 811.152344 561.542969 L 786.039062 561.542969 C 797.757812 567.125 802.757812 579.742188 802.75 591.480469 Z M 915.726562 591.480469 L 915.726562 561.542969 L 898.128906 561.542969 L 898.128906 591.480469 Z M 850.839844 591.480469 L 850.839844 561.542969 L 833.25 561.542969 L 833.25 591.480469 Z M 952.125 591.480469 L 952.125 574.960938 L 964.976562 591.480469 L 986.03125 591.480469 L 962.359375 561.542969 L 934.394531 561.542969 L 934.394531 591.480469 Z M 510.460938 591.480469 L 527.929688 591.480469 C 527.96875 580.84375 524.941406 570.183594 518.855469 561.542969 L 493.753906 561.542969 C 505.460938 567.125 510.460938 579.742188 510.460938 591.480469 Z M 357.472656 574.960938 L 370.324219 591.480469 L 391.378906 591.480469 L 367.695312 561.542969 L 339.738281 561.542969 L 339.738281 591.480469 L 357.472656 591.480469 Z M 417.921875 591.480469 L 417.921875 561.542969 L 400.191406 561.542969 L 400.191406 591.480469 Z M 577.496094 591.480469 L 577.496094 561.542969 L 559.765625 561.542969 L 559.765625 591.480469 Z M 710.082031 591.480469 L 710.082031 587.179688 L 662.925781 587.179688 L 662.925781 561.542969 L 645.195312 561.542969 L 645.195312 591.480469 Z M 448.8125 591.480469 C 448.761719 579.75 453.902344 567.132812 465.667969 561.542969 L 440.5625 561.542969 C 434.496094 570.175781 431.453125 580.816406 431.355469 591.480469 Z M 1045.214844 591.480469 L 1045.214844 561.542969 L 1027.621094 561.542969 L 1027.621094 591.480469 Z M 1093.976562 590.402344 C 1093.984375 590.753906 1093.96875 591.117188 1093.96875 591.480469 L 1111.574219 591.480469 C 1111.574219 591.160156 1111.582031 590.855469 1111.582031 590.539062 C 1111.402344 580.128906 1108.402344 569.796875 1102.273438 561.542969 L 1069.902344 561.542969 C 1086.46875 563.886719 1093.613281 577.125 1093.976562 590.402344 Z M 994.84375 591.480469 L 994.84375 561.542969 L 1012.585938 561.542969 L 1012.585938 591.480469 L 994.84375 591.480469 " fill-opacity="1" fill-rule="nonzero"/><g clip-path="url(#337b47d2ac)"><path fill="#c8f53c" d="M 750.566406 591.480469 C 750.511719 579.75 755.65625 567.132812 767.417969 561.542969 L 742.316406 561.542969 C 736.246094 570.175781 733.203125 580.816406 733.105469 591.480469 Z M 812.210938 591.480469 L 829.683594 591.480469 C 829.71875 580.84375 826.703125 570.183594 820.609375 561.542969 L 795.503906 561.542969 C 807.214844 567.125 812.222656 579.742188 812.210938 591.480469 Z M 925.191406 591.480469 L 925.191406 561.542969 L 907.59375 561.542969 L 907.59375 591.480469 Z M 860.300781 591.480469 L 860.300781 561.542969 L 842.707031 561.542969 L 842.707031 591.480469 Z M 961.589844 591.480469 L 961.589844 574.960938 L 974.441406 591.480469 L 995.496094 591.480469 L 971.8125 561.542969 L 943.855469 561.542969 L 943.855469 591.480469 Z M 519.917969 591.480469 L 537.386719 591.480469 C 537.429688 580.84375 534.40625 570.183594 528.320312 561.542969 L 503.207031 561.542969 C 514.925781 567.125 519.925781 579.742188 519.917969 591.480469 Z M 366.925781 574.960938 L 379.785156 591.480469 L 400.832031 591.480469 L 377.160156 561.542969 L 349.195312 561.542969 L 349.195312 591.480469 L 366.925781 591.480469 Z M 427.386719 591.480469 L 427.386719 561.542969 L 409.644531 561.542969 L 409.644531 591.480469 Z M 586.953125 591.480469 L 586.953125 561.542969 L 569.230469 561.542969 L 569.230469 591.480469 Z M 719.539062 591.480469 L 719.539062 587.179688 L 672.382812 587.179688 L 672.382812 561.542969 L 654.648438 561.542969 L 654.648438 591.480469 Z M 458.277344 591.480469 C 458.222656 579.75 463.359375 567.132812 475.132812 561.542969 L 450.019531 561.542969 C 443.960938 570.175781 440.917969 580.816406 440.816406 591.480469 Z M 1054.679688 591.480469 L 1054.679688 561.542969 L 1037.074219 561.542969 L 1037.074219 591.480469 Z M 1103.441406 590.402344 C 1103.449219 590.753906 1103.429688 591.117188 1103.429688 591.480469 L 1121.035156 591.480469 C 1121.035156 591.160156 1121.046875 590.855469 1121.035156 590.539062 C 1120.855469 580.128906 1117.867188 569.796875 1111.726562 561.542969 L 1079.359375 561.542969 C 1095.933594 563.886719 1103.070312 577.125 1103.441406 590.402344 Z M 1004.308594 591.480469 L 1004.308594 561.542969 L 1022.039062 561.542969 L 1022.039062 591.480469 L 1004.308594 591.480469 " fill-opacity="1" fill-rule="nonzero"/></g><path fill="#000000" d="M 745.839844 591.480469 C 745.785156 579.75 750.925781 567.132812 762.691406 561.542969 L 737.585938 561.542969 C 731.519531 570.175781 728.476562 580.816406 728.378906 591.480469 Z M 807.484375 591.480469 L 824.953125 591.480469 C 824.992188 580.84375 821.964844 570.183594 815.878906 561.542969 L 790.777344 561.542969 C 802.484375 567.125 807.492188 579.742188 807.484375 591.480469 Z M 920.464844 591.480469 L 920.464844 561.542969 L 902.867188 561.542969 L 902.867188 591.480469 Z M 855.574219 591.480469 L 855.574219 561.542969 L 837.976562 561.542969 L 837.976562 591.480469 Z M 956.851562 591.480469 L 956.851562 574.960938 L 969.710938 591.480469 L 990.761719 591.480469 L 967.085938 561.542969 L 939.128906 561.542969 L 939.128906 591.480469 Z M 515.1875 591.480469 L 532.660156 591.480469 C 532.695312 580.84375 529.679688 570.183594 523.585938 561.542969 L 498.480469 561.542969 C 510.199219 567.125 515.199219 579.742188 515.1875 591.480469 Z M 362.199219 574.960938 L 375.058594 591.480469 L 396.105469 591.480469 L 372.433594 561.542969 L 344.464844 561.542969 L 344.464844 591.480469 L 362.199219 591.480469 Z M 422.648438 591.480469 L 422.648438 561.542969 L 404.917969 561.542969 L 404.917969 591.480469 Z M 582.222656 591.480469 L 582.222656 561.542969 L 564.492188 561.542969 L 564.492188 591.480469 Z M 714.8125 591.480469 L 714.8125 587.179688 L 667.652344 587.179688 L 667.652344 561.542969 L 649.921875 561.542969 L 649.921875 591.480469 Z M 453.550781 591.480469 C 453.488281 579.75 458.632812 567.132812 470.40625 561.542969 L 445.292969 561.542969 C 439.222656 570.175781 436.179688 580.816406 436.082031 591.480469 Z M 1049.945312 591.480469 L 1049.945312 561.542969 L 1032.347656 561.542969 L 1032.347656 591.480469 Z M 1098.710938 590.402344 C 1098.722656 590.753906 1098.695312 591.117188 1098.695312 591.480469 L 1116.308594 591.480469 C 1116.308594 591.160156 1116.308594 590.855469 1116.308594 590.539062 C 1116.128906 580.128906 1113.128906 569.796875 1107 561.542969 L 1074.632812 561.542969 C 1091.195312 563.886719 1098.339844 577.125 1098.710938 590.402344 Z M 999.582031 591.480469 L 999.582031 561.542969 L 1017.3125 561.542969 L 1017.3125 591.480469 L 999.582031 591.480469 " fill-opacity="1" fill-rule="nonzero"/><path fill="#f74b46" d="M 767.265625 558.582031 C 772.734375 558.582031 777.398438 559.667969 781.3125 561.542969 L 806.417969 561.542969 C 798.511719 550.3125 785.449219 542.472656 767.265625 542.472656 C 749.015625 542.472656 736.019531 550.300781 728.125 561.542969 L 753.238281 561.542969 C 757.167969 559.675781 761.8125 558.582031 767.265625 558.582031 Z M 474.976562 558.582031 C 480.449219 558.582031 485.101562 559.667969 489.023438 561.542969 L 514.128906 561.542969 C 506.222656 550.3125 493.164062 542.472656 474.976562 542.472656 C 456.730469 542.472656 443.726562 550.300781 435.835938 561.542969 L 460.941406 561.542969 C 464.871094 559.675781 469.527344 558.582031 474.976562 558.582031 Z M 708.035156 561.542969 L 708.035156 544.492188 L 640.464844 544.492188 L 640.464844 561.542969 Z M 413.195312 544.21875 L 395.464844 544.21875 L 395.464844 561.542969 L 413.195312 561.542969 Z M 911 544.492188 L 893.402344 544.492188 L 893.402344 561.542969 L 911 561.542969 Z M 572.769531 560.464844 L 602.59375 560.464844 L 602.59375 544.355469 C 575.324219 544.355469 552.347656 544.355469 525.214844 544.355469 L 525.214844 560.464844 L 555.039062 560.464844 L 555.039062 561.542969 L 572.769531 561.542969 Z M 846.109375 544.492188 L 828.523438 544.492188 L 828.523438 561.542969 L 846.109375 561.542969 Z M 349.382812 544.355469 L 335.011719 544.355469 L 335.011719 561.542969 L 362.96875 561.542969 Z M 944.039062 544.355469 L 929.664062 544.355469 L 929.664062 561.542969 L 957.632812 561.542969 Z M 1040.488281 561.132812 L 1059.832031 561.132812 C 1061.71875 561.132812 1063.472656 561.296875 1065.167969 561.542969 L 1097.535156 561.542969 C 1089.972656 551.359375 1077.628906 544.355469 1059.832031 544.355469 C 1048.277344 544.355469 1034.4375 544.355469 1022.882812 544.355469 L 1022.882812 561.542969 L 1040.488281 561.542969 Z M 1007.847656 561.542969 L 990.117188 561.542969 L 990.117188 544.21875 L 1007.847656 544.21875 L 1007.847656 561.542969 " fill-opacity="1" fill-rule="nonzero"/><path fill="#c8f53c" d="M 776.730469 558.582031 C 782.199219 558.582031 786.855469 559.667969 790.777344 561.542969 L 815.878906 561.542969 C 807.972656 550.3125 794.914062 542.472656 776.730469 542.472656 C 758.472656 542.472656 745.476562 550.300781 737.585938 561.542969 L 762.691406 561.542969 C 766.621094 559.675781 771.277344 558.582031 776.730469 558.582031 Z M 484.433594 558.582031 C 489.914062 558.582031 494.566406 559.667969 498.480469 561.542969 L 523.585938 561.542969 C 515.679688 550.3125 502.628906 542.472656 484.433594 542.472656 C 466.183594 542.472656 453.1875 550.300781 445.292969 561.542969 L 470.40625 561.542969 C 474.328125 559.675781 478.980469 558.582031 484.433594 558.582031 Z M 717.5 561.542969 L 717.5 544.492188 L 649.921875 544.492188 L 649.921875 561.542969 Z M 422.648438 544.21875 L 404.917969 544.21875 L 404.917969 561.542969 L 422.648438 561.542969 Z M 920.464844 544.492188 L 902.867188 544.492188 L 902.867188 561.542969 L 920.464844 561.542969 Z M 582.222656 560.464844 L 612.046875 560.464844 L 612.046875 544.355469 C 584.777344 544.355469 561.800781 544.355469 534.667969 544.355469 L 534.667969 560.464844 L 564.492188 560.464844 L 564.492188 561.542969 L 582.222656 561.542969 Z M 855.574219 544.492188 L 837.976562 544.492188 L 837.976562 561.542969 L 855.574219 561.542969 Z M 358.839844 544.355469 L 344.464844 544.355469 L 344.464844 561.542969 L 372.433594 561.542969 Z M 953.5 544.355469 L 939.128906 544.355469 L 939.128906 561.542969 L 967.085938 561.542969 Z M 1049.945312 561.132812 L 1069.289062 561.132812 C 1071.179688 561.132812 1072.9375 561.296875 1074.632812 561.542969 L 1107 561.542969 C 1099.4375 551.359375 1087.09375 544.355469 1069.289062 544.355469 C 1057.730469 544.355469 1043.894531 544.355469 1032.347656 544.355469 L 1032.347656 561.542969 L 1049.945312 561.542969 Z M 1017.3125 561.542969 L 999.582031 561.542969 L 999.582031 544.21875 L 1017.3125 544.21875 L 1017.3125 561.542969 " fill-opacity="1" fill-rule="nonzero"/><path fill="#000000" d="M 771.992188 558.582031 C 777.472656 558.582031 782.128906 559.667969 786.039062 561.542969 L 811.152344 561.542969 C 803.246094 550.3125 790.1875 542.472656 771.992188 542.472656 C 753.746094 542.472656 740.75 550.300781 732.851562 561.542969 L 757.964844 561.542969 C 761.894531 559.675781 766.550781 558.582031 771.992188 558.582031 Z M 479.707031 558.582031 C 485.183594 558.582031 489.839844 559.667969 493.753906 561.542969 L 518.855469 561.542969 C 510.949219 550.3125 497.890625 542.472656 479.707031 542.472656 C 461.457031 542.472656 448.460938 550.300781 440.5625 561.542969 L 465.667969 561.542969 C 469.597656 559.675781 474.253906 558.582031 479.707031 558.582031 Z M 712.765625 561.542969 L 712.765625 544.492188 L 645.195312 544.492188 L 645.195312 561.542969 Z M 417.921875 544.21875 L 400.191406 544.21875 L 400.191406 561.542969 L 417.921875 561.542969 Z M 915.726562 544.492188 L 898.128906 544.492188 L 898.128906 561.542969 L 915.726562 561.542969 Z M 577.496094 560.464844 L 607.320312 560.464844 L 607.320312 544.355469 C 580.050781 544.355469 557.074219 544.355469 529.941406 544.355469 L 529.941406 560.464844 L 559.765625 560.464844 L 559.765625 561.542969 L 577.496094 561.542969 Z M 850.839844 544.492188 L 833.25 544.492188 L 833.25 561.542969 L 850.839844 561.542969 Z M 354.113281 544.355469 L 339.738281 544.355469 L 339.738281 561.542969 L 367.695312 561.542969 Z M 948.765625 544.355469 L 934.394531 544.355469 L 934.394531 561.542969 L 962.359375 561.542969 Z M 1045.214844 561.132812 L 1064.5625 561.132812 C 1066.453125 561.132812 1068.210938 561.296875 1069.902344 561.542969 L 1102.273438 561.542969 C 1094.699219 551.359375 1082.367188 544.355469 1064.5625 544.355469 C 1053.003906 544.355469 1039.167969 544.355469 1027.621094 544.355469 L 1027.621094 561.542969 L 1045.214844 561.542969 Z M 1012.585938 561.542969 L 994.84375 561.542969 L 994.84375 544.21875 L 1012.585938 544.21875 L 1012.585938 561.542969 " fill-opacity="1" fill-rule="nonzero"/><path fill="#f74b46" d="M 702.984375 603.558594 L 702.984375 591.480469 L 638.09375 591.480469 L 638.09375 621.414062 L 655.824219 621.414062 L 655.824219 603.558594 Z M 734 592.285156 C 733.992188 592.011719 734.019531 591.75 734.011719 591.480469 L 716.550781 591.480469 C 716.550781 591.652344 716.539062 591.832031 716.539062 592.011719 C 716.539062 602.582031 719.355469 612.972656 725.152344 621.414062 L 750.78125 621.414062 C 739.074219 616.039062 734.308594 603.859375 734 592.285156 Z M 552.664062 591.480469 L 552.664062 621.414062 L 570.40625 621.414062 L 570.40625 591.480469 Z M 843.746094 598.320312 L 843.746094 591.480469 L 826.148438 591.480469 L 826.148438 598.320312 C 826.148438 607.578125 828.234375 615.253906 831.785156 621.414062 L 855.554688 621.414062 C 848.175781 617.542969 843.746094 609.75 843.746094 598.320312 Z M 813.128906 591.480469 L 795.65625 591.480469 C 795.65625 591.703125 795.675781 591.929688 795.667969 592.148438 C 795.46875 603.742188 790.710938 616.023438 778.964844 621.414062 L 804.296875 621.414062 C 810.15625 612.871094 813.019531 602.382812 813.128906 591.875 C 813.136719 591.75 813.128906 591.613281 813.128906 591.480469 Z M 332.636719 591.480469 L 332.636719 621.414062 L 350.371094 621.414062 L 350.371094 591.480469 Z M 520.832031 591.480469 L 503.359375 591.480469 C 503.359375 591.703125 503.378906 591.929688 503.378906 592.148438 C 503.171875 603.742188 498.417969 616.023438 486.671875 621.414062 L 512 621.414062 C 517.871094 612.871094 520.722656 602.382812 520.839844 591.875 C 520.839844 591.75 520.832031 591.613281 520.832031 591.480469 Z M 393.089844 591.480469 L 393.089844 602.617188 L 384.277344 591.480469 L 363.230469 591.480469 L 386.542969 621.414062 L 410.832031 621.414062 L 410.832031 591.480469 Z M 441.714844 592.285156 C 441.707031 592.011719 441.722656 591.75 441.722656 591.480469 L 424.261719 591.480469 C 424.261719 591.652344 424.253906 591.832031 424.253906 592.011719 C 424.253906 602.582031 427.0625 612.972656 432.867188 621.414062 L 458.496094 621.414062 C 446.777344 616.039062 442.011719 603.859375 441.714844 592.285156 Z M 908.636719 591.480469 L 891.039062 591.480469 L 891.039062 598.320312 C 891.039062 609.351562 887.136719 617.414062 879.972656 621.414062 L 903.367188 621.414062 C 906.726562 615.207031 908.636719 607.523438 908.636719 598.320312 Z M 1086.867188 591.480469 C 1086.859375 606.429688 1078.328125 621.28125 1057.46875 621.28125 L 1038.117188 621.28125 L 1038.117188 591.480469 L 1020.519531 591.480469 L 1020.519531 621.414062 L 1095.015625 621.414062 C 1101.4375 612.9375 1104.480469 602.210938 1104.480469 591.480469 Z M 987.753906 591.480469 L 987.753906 602.617188 L 978.941406 591.480469 L 957.886719 591.480469 L 981.195312 621.414062 L 1005.484375 621.414062 L 1005.484375 591.480469 Z M 945.035156 591.480469 L 945.035156 621.414062 L 927.300781 621.414062 L 927.300781 591.480469 L 945.035156 591.480469 " fill-opacity="1" fill-rule="nonzero"/><path fill="#c8f53c" d="M 712.445312 603.558594 L 712.445312 591.480469 L 647.558594 591.480469 L 647.558594 621.414062 L 665.289062 621.414062 L 665.289062 603.558594 Z M 743.464844 592.285156 C 743.457031 592.011719 743.472656 591.75 743.472656 591.480469 L 726.011719 591.480469 C 726.011719 591.652344 726.003906 591.832031 726.003906 592.011719 C 726.003906 602.582031 728.8125 612.972656 734.617188 621.414062 L 760.246094 621.414062 C 748.527344 616.039062 743.773438 603.859375 743.464844 592.285156 Z M 562.128906 591.480469 L 562.128906 621.414062 L 579.859375 621.414062 L 579.859375 591.480469 Z M 853.210938 598.320312 L 853.210938 591.480469 L 835.613281 591.480469 L 835.613281 598.320312 C 835.613281 607.578125 837.699219 615.253906 841.246094 621.414062 L 865.011719 621.414062 C 857.640625 617.542969 853.210938 609.75 853.210938 598.320312 Z M 822.582031 591.480469 L 805.113281 591.480469 C 805.113281 591.703125 805.128906 591.929688 805.128906 592.148438 C 804.921875 603.742188 800.167969 616.023438 788.421875 621.414062 L 813.753906 621.414062 C 819.621094 612.871094 822.472656 602.382812 822.589844 591.875 C 822.589844 591.75 822.582031 591.613281 822.582031 591.480469 Z M 342.101562 591.480469 L 342.101562 621.414062 L 359.835938 621.414062 L 359.835938 591.480469 Z M 530.296875 591.480469 L 512.824219 591.480469 C 512.824219 591.703125 512.84375 591.929688 512.835938 592.148438 C 512.636719 603.742188 507.878906 616.023438 496.132812 621.414062 L 521.464844 621.414062 C 527.324219 612.871094 530.1875 602.382812 530.296875 591.875 C 530.304688 591.75 530.296875 591.613281 530.296875 591.480469 Z M 402.554688 591.480469 L 402.554688 602.617188 L 393.742188 591.480469 L 372.6875 591.480469 L 395.996094 621.414062 L 420.285156 621.414062 L 420.285156 591.480469 Z M 451.179688 592.285156 C 451.167969 592.011719 451.1875 591.75 451.1875 591.480469 L 433.71875 591.480469 C 433.71875 591.652344 433.707031 591.832031 433.707031 592.011719 C 433.707031 602.582031 436.523438 612.972656 442.320312 621.414062 L 467.949219 621.414062 C 456.242188 616.039062 451.476562 603.859375 451.179688 592.285156 Z M 918.089844 591.480469 L 900.496094 591.480469 L 900.496094 598.320312 C 900.496094 609.351562 896.589844 617.414062 889.425781 621.414062 L 912.828125 621.414062 C 916.1875 615.207031 918.089844 607.523438 918.089844 598.320312 Z M 1096.332031 591.480469 C 1096.320312 606.429688 1087.78125 621.28125 1066.925781 621.28125 L 1047.578125 621.28125 L 1047.578125 591.480469 L 1029.984375 591.480469 L 1029.984375 621.414062 L 1104.472656 621.414062 C 1110.902344 612.9375 1113.945312 602.210938 1113.9375 591.480469 Z M 997.207031 591.480469 L 997.207031 602.617188 L 988.394531 591.480469 L 967.347656 591.480469 L 990.660156 621.414062 L 1014.949219 621.414062 L 1014.949219 591.480469 Z M 954.488281 591.480469 L 954.488281 621.414062 L 936.757812 621.414062 L 936.757812 591.480469 L 954.488281 591.480469 " fill-opacity="1" fill-rule="nonzero"/><path fill="#000000" d="M 707.710938 603.558594 L 707.710938 591.480469 L 642.832031 591.480469 L 642.832031 621.414062 L 660.5625 621.414062 L 660.5625 603.558594 Z M 738.730469 592.285156 C 738.730469 592.011719 738.746094 591.75 738.746094 591.480469 L 721.285156 591.480469 C 721.277344 591.652344 721.269531 591.832031 721.269531 592.011719 C 721.269531 602.582031 724.085938 612.972656 729.878906 621.414062 L 755.511719 621.414062 C 743.800781 616.039062 739.035156 603.859375 738.730469 592.285156 Z M 557.402344 591.480469 L 557.402344 621.414062 L 575.132812 621.414062 L 575.132812 591.480469 Z M 848.472656 598.320312 L 848.472656 591.480469 L 830.886719 591.480469 L 830.886719 598.320312 C 830.886719 607.578125 832.960938 615.253906 836.519531 621.414062 L 860.285156 621.414062 C 852.902344 617.542969 848.472656 609.75 848.472656 598.320312 Z M 817.855469 591.480469 L 800.386719 591.480469 C 800.386719 591.703125 800.402344 591.929688 800.402344 592.148438 C 800.195312 603.742188 795.441406 616.023438 783.695312 621.414062 L 809.023438 621.414062 C 814.894531 612.871094 817.746094 602.382812 817.863281 591.875 C 817.863281 591.75 817.855469 591.613281 817.855469 591.480469 Z M 337.375 591.480469 L 337.375 621.414062 L 355.109375 621.414062 L 355.109375 591.480469 Z M 525.566406 591.480469 L 508.089844 591.480469 C 508.089844 591.703125 508.105469 591.929688 508.105469 592.148438 C 507.90625 603.742188 503.152344 616.023438 491.40625 621.414062 L 516.730469 621.414062 C 522.597656 612.871094 525.449219 602.382812 525.566406 591.875 C 525.566406 591.75 525.566406 591.613281 525.566406 591.480469 Z M 397.828125 591.480469 L 397.828125 602.617188 L 389.015625 591.480469 L 367.957031 591.480469 L 391.269531 621.414062 L 415.558594 621.414062 L 415.558594 591.480469 Z M 446.441406 592.285156 C 446.441406 592.011719 446.460938 591.75 446.460938 591.480469 L 428.988281 591.480469 C 428.988281 591.652344 428.980469 591.832031 428.980469 592.011719 C 428.980469 602.582031 431.796875 612.972656 437.59375 621.414062 L 463.222656 621.414062 C 451.511719 616.039062 446.75 603.859375 446.441406 592.285156 Z M 913.363281 591.480469 L 895.765625 591.480469 L 895.765625 598.320312 C 895.765625 609.351562 891.863281 617.414062 884.699219 621.414062 L 908.101562 621.414062 C 911.453125 615.207031 913.363281 607.523438 913.363281 598.320312 Z M 1091.601562 591.480469 C 1091.585938 606.429688 1083.054688 621.28125 1062.195312 621.28125 L 1042.851562 621.28125 L 1042.851562 591.480469 L 1025.246094 591.480469 L 1025.246094 621.414062 L 1099.746094 621.414062 C 1106.175781 612.9375 1109.21875 602.210938 1109.207031 591.480469 Z M 992.480469 591.480469 L 992.480469 602.617188 L 983.667969 591.480469 L 962.613281 591.480469 L 985.921875 621.414062 L 1010.214844 621.414062 L 1010.214844 591.480469 Z M 949.761719 591.480469 L 949.761719 621.414062 L 932.027344 621.414062 L 932.027344 591.480469 L 949.761719 591.480469 " fill-opacity="1" fill-rule="nonzero"/></svg>