<svg width="32" height="32" viewBox="0 0 32 32" fill="none" xmlns="http://www.w3.org/2000/svg">
<rect width="32" height="32" rx="16" fill="#8247E5"/>
<g clip-path="url(#clip0_2_57)">
<path d="M20.5938 12.7812C20.2656 12.5938 19.8438 12.5938 19.4688 12.7812L16.8438 14.3281L15.0625 15.3125L12.4844 16.8594C12.1562 17.0469 11.7344 17.0469 11.3594 16.8594L9.34375 15.6406C9.01562 15.4531 8.78125 15.0781 8.78125 14.6562V12.3125C8.78125 11.9375 8.96875 11.5625 9.34375 11.3281L11.3594 10.1562C11.6875 9.96875 12.1094 9.96875 12.4844 10.1562L14.5 11.375C14.8281 11.5625 15.0625 11.9375 15.0625 12.3594V13.9063L16.8438 12.875V11.2812C16.8438 10.9062 16.6562 10.5312 16.2812 10.2969L12.5312 8.09375C12.2031 7.90625 11.7812 7.90625 11.4062 8.09375L7.5625 10.3438C7.1875 10.5312 7 10.9062 7 11.2812V15.6875C7 16.0625 7.1875 16.4375 7.5625 16.6719L11.3594 18.875C11.6875 19.0625 12.1094 19.0625 12.4844 18.875L15.0625 17.375L16.8438 16.3438L19.4219 14.8438C19.75 14.6563 20.1719 14.6563 20.5469 14.8438L22.5625 16.0156C22.8906 16.2031 23.125 16.5781 23.125 17V19.3438C23.125 19.7188 22.9375 20.0938 22.5625 20.3281L20.5938 21.5C20.2656 21.6875 19.8438 21.6875 19.4688 21.5L17.4531 20.3281C17.125 20.1406 16.8906 19.7656 16.8906 19.3438V17.8438L15.1094 18.875V20.4219C15.1094 20.7969 15.2969 21.1719 15.6719 21.4062L19.4688 23.6094C19.7969 23.7969 20.2188 23.7969 20.5938 23.6094L24.3906 21.4062C24.7188 21.2188 24.9531 20.8438 24.9531 20.4219V15.9688C24.9531 15.5938 24.7656 15.2188 24.3906 14.9844L20.5938 12.7812Z" fill="white"/>
</g>
<defs>
<clipPath id="clip0_2_57">
<rect width="18" height="15.7031" fill="white" transform="translate(7 8)"/>
</clipPath>
</defs>
</svg>
